<svg xmlns="http://www.w3.org/2000/svg" viewBox="0 0 276.3 282.62"><defs><style>.cls-1,.cls-2{fill:none;stroke:#937d4a;stroke-linecap:round;stroke-linejoin:round}.cls-1{stroke-width:6px}.cls-2{stroke-width:4px}</style></defs><title>adv-1</title><g id="Слой_2" data-name="Слой 2"><g id="_1" data-name="1"><path class="cls-1" d="M71.6 174.69V262"/><path class="cls-2" d="M82.58 204.87v8.73m0 7.68v44.86m108.58-74.67v38.46m0 12.36v11.16"/><path class="cls-1" d="M201.63 174.69v88.13M71.6 174.69h130.03M71.6 191.47h130.03"/><path class="cls-2" d="M119.43 234.88c4.35 12.21 13.75 32.3 28.81 33.26a2.12 2.12 0 0 0 1.81-.49 2.26 2.26 0 0 0 0-2.13l-6.37-19.18a79.75 79.75 0 0 0 16.1-8.69c1.51-1.05 3.13-3.06 1.95-4.48a3.6 3.6 0 0 0-2.56-.9c-14.68-1.27-29.58-10.47-38.49-22.07-1.06-1.38-2.75-3-4.26-2.14-1.1.63-1.2 2.15-1.14 3.42a81.79 81.79 0 0 0 4.15 23.4z"/><path class="cls-2" d="M120.63 242.92l-4.8 16c-.84 2.8-1.38 6.5 1.1 8.05 2.06 1.29 4.75.06 6.7-1.38a32.61 32.61 0 0 0 6.63-6.53"/><circle class="cls-2" cx="143.97" cy="211.53" r="6.66"/><path class="cls-1" d="M268.88 121.88A134 134 0 1 1 137 11.65a133.39 133.39 0 0 1 80.25 26.68"/><path class="cls-2" d="M50.36 64.07a119.67 119.67 0 0 1 14.85-13.34M18 148.49v-2.86a118.43 118.43 0 0 1 20.45-66.71m-2.14 104.22a107.18 107.18 0 0 1-6.73-37.51 108.46 108.46 0 0 1 .84-13.54m7.24 79.08a118.28 118.28 0 0 1-18.07-46m215.33 48.05a119.65 119.65 0 0 1-20.36 22.63M255 130.6a120.14 120.14 0 0 1 .94 15 118.66 118.66 0 0 1-8.52 44.3"/><path class="cls-1" d="M216.24 13.63l28.83 67.72c3.54 8.32-2.6 15.76-10.19 19s-17.36 2.56-20.9-5.76l-28.83-67.73-25 10.63 11.9 27.94c-9.5-13.57-27-21.43-47.78-12.67L79.51 71.84 123 174l26.13-11.12-12.8-30.07L149.9 127l28.53 23.37L207.62 138l-1.62-3.8-32-24.65a37.66 37.66 0 0 0 5-27.87l10.21 24c9.57 22.48 34.8 27.08 55.67 18.19s34.9-30.2 25.33-52.68L241.2 3zm-71.11 88l-18.68 8-10.88-25.56c6.13-2.61 12.49-5.49 18.68-8 14.96-6.15 25.04 19.56 10.88 25.59z"/></g></g></svg>