<svg xmlns="http://www.w3.org/2000/svg" viewBox="0 0 397.16 273.91"><defs><style>.cls-1,.cls-2{fill:none;stroke:#937d4a;stroke-linecap:round;stroke-linejoin:round}.cls-1{stroke-width:6px}.cls-2{stroke-width:4px}</style></defs><title>adv-3</title><g id="Слой_2" data-name="Слой 2"><g id="_2" data-name="2"><path class="cls-1" d="M65.62 127.52v48.23m-7.6 0h15.2m-25.61-48.23h36.02m185.61 0v48.23m-7.6 0h15.21m-15.21-48.23h15.21m-156.13 0l-17.43 48.23m-7.6 0h15.2m2.23-48.23h15.2m-7.99 0l17.43 48.23m7.6 0h-15.2m168.56-48.23v48.23m-7.6 0h15.2m-15.2-48.23h7.6m36.41 0v48.23m-7.6-48.23h15.2m-123.51 0v48.23m-7.6 0h37.1m-37.1-48.23h15.21m21.89 48.23v-7.82m115.95-40.41v48.23m-7.61 0h37.1m0 0v-7.82m-37.1-40.41h37.1m0 0v7.83m-95.44-7.83l36.41 48.23m29.54-24.11h19.05m0-5.77v11.54M47.61 127.52v9.4m36.02-9.4v9.4m24.93 24.24h23.92m60.71 6.77a22.49 22.49 0 0 1-17 7.82c-12.71 0-23-10.8-23-24.11s10.3-24.11 23-24.11a22.62 22.62 0 0 1 18.23 9.4m.03-.01v-9.4m-1.26 40.41v-10.52m-8.53 0h17.06"/><path class="cls-2" d="M176.66 111.92l24.08-41.71m-84.79 146.86l13.1-22.68m-27.12 46.96l8.39-14.53m-1.76 29.09H93.53m84.21 0H122.5m99.78 0h-15.33m111.99-55.38l31.98 55.38H237.34M213.16 48.69L222.22 33l33.25 57.58M134.62 208.74l11.32-19.61"/><path class="cls-2" d="M312.98 214.19l17.16 29.72h-26.92m-73.37-173.7l16.07 27.83"/><path class="cls-1" d="M156.18 117.39L222.22 3l66.05 114.39m-173.51 71.74l-47.21 81.78H376.9l-47.21-81.78M95 191.66a53.24 53.24 0 0 1-53.51-5.22c-23.62-17.56-26-49.81-12.27-74.23 4-7.16 9.56-14.63 8-22.72-1.06-5.63-5.7-10.28-11.19-11.92a20.61 20.61 0 0 0-16.42 2.54C6.65 81.95 4 84.64 3.22 88c-.91 4 1.09 8.31 4.12 11.12s7 4.43 10.88 5.81a143.43 143.43 0 0 0 46.33 8.23m16.67-.16a64.76 64.76 0 0 0 14-.51"/><circle class="cls-1" cx="124.88" cy="86.02" r="7.42" transform="matrix(.55 -.83 .83 .55 -15.75 142.74)"/><path class="cls-1" d="M129.35 45.35l-23.43 35.43 5.68 25.32 25.53-4.68 23.43-35.43-31.21-20.64z"/></g></g></svg>