<svg xmlns="http://www.w3.org/2000/svg" viewBox="0 0 288.89 282.69"><defs><style>.cls-1,.cls-2{fill:none;stroke:#937d4a;stroke-linecap:round;stroke-linejoin:round}.cls-1{stroke-width:6px}.cls-2{stroke-width:4px}</style></defs><title>adv-4</title><g id="Слой_2" data-name="Слой 2"><g id="_4" data-name="4"><path class="cls-1" d="M78.81 255.28l-32.54-7.29L3 109.64 101.18 3l141.44 31.7 43.27 138.35-98.18 106.64-16.12-3.61"/><path class="cls-2" d="M268.99 169.26l-53.6 58.22m39.25-104.1l4.82 15.42m-22.91-73.25l15.43 49.31m-40.65-71.8l19.56 4.39 2.57 8.21m22.01 110.57l-23.86 25.91m-2.49-110.15l16.08 51.42"/><path class="cls-1" d="M179.83 112.07a87.09 87.09 0 0 1 10.9 5c6.63 3.64 12.64 5.7 12.92 14.17a302.14 302.14 0 0 1-2.78 51.87 3.79 3.79 0 0 1-.78 2.15 3.53 3.53 0 0 1-1.44.8 25.27 25.27 0 0 1-7.62 1.42m-11.3-75.91a31.79 31.79 0 0 0 4.34-11.22"/><path class="cls-2" d="M177.76 93.73h1.73M170.77 91h1.65c2.29-1.59 4.74-3.23 7.52-3.4a15.52 15.52 0 0 1 6.26 1.4l4.47 1.65-.1.78-2.82 3.86a14.09 14.09 0 0 1-2.22 2.57 8.25 8.25 0 0 1-9.07.62 38.31 38.31 0 0 1-3.5-2.3h-2.74"/><path class="cls-1" d="M172.87 76.25c3.32.13 5.64.24 7.28 3.56l3.71 7.46"/><path class="cls-1" d="M167.69 64.81c.88-.07 1.77-.11 2.63-.19h2.53c3.13.29 6.59.11 9 2.21s3.85 4.84 5.31 7.59l6.42 12.11c2.11 4 4.28 8.34 3.46 12.76-1.1 5.92-7 9.5-10.75 14.18m-22.13-13.25a18.71 18.71 0 0 0 5.51-3.22m-16.58-.18a100.66 100.66 0 0 1 12.6 5.83m.19-.17a200.8 200.8 0 0 1 22.45 34.83m.11 1.32a26.8 26.8 0 0 1-10.9 16.57m-38.76-6.7a160.42 160.42 0 0 0 37.57 7.5M153 96.25a36.75 36.75 0 0 0 5-13"/><path class="cls-2" d="M150.71 75.62h2"/><path class="cls-1" d="M165.88 155.96l-2.17 97.66m-29.65-156.8a100.66 100.66 0 0 0-12.6 5.83M164.78 137a18.25 18.25 0 0 1-1.52 5.37l-4-1.78a4.42 4.42 0 0 0-1.49-.46 4.47 4.47 0 0 0-2.15.63c-14.38 7-28.72 14-44.77 15.24m23.32-59.75a36.75 36.75 0 0 1-5-13"/><path class="cls-2" d="M142 78.46a44.28 44.28 0 0 1-4 2.66 9.54 9.54 0 0 1-10.48-.71 16.28 16.28 0 0 1-2.56-3L121.64 73l-.12-.9 5.17-1.91c2.33-.86 4.75-1.74 7.24-1.58 3.21.21 6 2.1 8.69 3.93h1.91c2.65-1.83 5.47-3.73 8.69-3.93 2.48-.16 4.9.72 7.24 1.58l5.17 1.91-.12.9-3.26 4.46a16.28 16.28 0 0 1-2.56 3 9.54 9.54 0 0 1-10.48.71 44.28 44.28 0 0 1-4-2.66zm-5.56-2.84h-2"/><path class="cls-1" d="M129.4 68.15l4.28-8.62c1.9-3.83 4.58-4 8.42-4.11h2.9c3.84.15 6.52.28 8.42 4.11l4.28 8.62"/><path class="cls-1" d="M126.57 98.42C122.19 93 115.41 88.88 114.14 82c-.95-5.11 1.57-10.16 4-14.75l7.42-14c1.68-3.17 3.42-6.42 6.13-8.77s6.79-2.21 10.41-2.55h2.9c3.62.34 7.62.12 10.41 2.55s4.45 5.6 6.13 8.77l7.42 14c2.44 4.59 4.95 9.64 4 14.75-1.27 6.84-8.05 11-12.43 16.39m-41.43 38.39a321.41 321.41 0 0 1 31.9-9.61m.39.05c5 1.08 9.84 4.65 13.53 8.18m-46.11-.15c-1.47-4.91 5-6.8 8-9a3.78 3.78 0 0 1 4.67-.59l7.31 2.85m36.13 28.74q2.16 36.22 4.83 72.41"/></g></g></svg>