<svg xmlns="http://www.w3.org/2000/svg" viewBox="0 0 1924.06 765"><defs><style>.cls-1,.cls-2{fill:#212121}.cls-2{stroke:#6d6d6d;stroke-miterlimit:10}.cls-3,.cls-4,.cls-5{fill:none;stroke-linecap:round;stroke-linejoin:round}.cls-3,.cls-5{stroke:#282828}.cls-3,.cls-4{stroke-width:6px}.cls-4{stroke:#232323}.cls-5{stroke-width:4px}</style></defs><title>bot</title><g id="Слой_2" data-name="Слой 2"><g id="_4" data-name="4"><g id="_4-2" data-name="4"><path class="cls-1" d="M1921.06 765V30.8l-36 9.2-7.33 6-16.67 7.33-13.33-4.66-19.67-21.17-21 12.5-20.66 20.67h-12L1767.06 72l-24-2.67-18.66 20.17-44 11-23.34-11-11.5 7.5-7 .75-19 9.5-10-6.75-16.5-5.5-4-5.5h-8.5l-18.5 11h-3l-23.67 10.82-16.83-10.82-11-3.5-25.5 17-11.5 13.5-8-3.5-25.5 16.25-31.5-8.25-7-4.5-15.5 4.5-22 16.5-29.5 12.5-23.5-7.5-32.5 2.5-14.5-5-12.5-5-7 10-9 5-26.5 24-39.5-2-15 4.88-5.5-2.88-21 5.75-5.5-5.75-6-4-21 19.5-8 9.25-21-3.25-6-4-20.5 16.5-18 10.5-24 17.5-19.5-4.37-9.5-4.38-10 8.75h-5l-28 22-10.5-6-19-8.5-5.5-7.5-21.5-17.5-13.5-4.5-18.5 9-23.5-15-18-16.5-4-4-14 8-13.5 6.5-16 12-17.5-19.5-29-16-8.5-8-13-16.75-10.5 4.75-18 4.5-4-4.5-4.5-9.5h-6l-29.5-13-20.5-12-29.25 8.5 5.75-2-11.5-8.5-19-10.5-10.5 1.35-14.5 9.15-25.5-21-26.82 11.85v.01-.01L443.06 114h-7l-33-26.75-26 5.75-17-11.5V70l-42-41h-10l-36-26-39 26h-16l-27 29h-12l-28 23.5-28-11.5-39 23h-23l-31 42-15-8h-13v638h1920z"/><path class="cls-2" d="M453.24 123.86v-.01.01z"/></g><g id="_2" data-name="2"><path class="cls-3" d="M581.56 263l-10-18.5-38.5-11-8-13.5-11-26-19-5.5-17.5-11 2.5-12-5-20.5-32-31h-7l-33-26.75-26 5.75-17-11.5V70l-42-41h-10l-36-26-39 26h-16l-27 29h-12l-28 23.5"/><path class="cls-3" d="M3 127h16.5l14.61 7.93 30.2-41.63h22.41l37.98-22.8 54.56 22.8 8.44 33.45-1.62 20.41 15.58 7.93h9.42l13.31 28.74"/><path class="cls-4" d="M376.4 200l-23.34-3.25-18.66-25.42-22.67-5.33-25.33-10.67L301.73 135l10-18.96-10-35.21L281.06 70l-13.23-15.33 9.57-32.5L272.06 3"/><path class="cls-3" d="M561.06 141.5l-11.5-8.5-19-10.5-10.5 1.35-14.5 9.15-25.5-21-26.82 11.85M841.06 286h-14.5l-14.5 5-5.5-10-8.5-10.5h-16.5l-13-4.5-8-20-15-21-17.5-19.5-29-16-8.5-8-13-16.75-10.5 4.75-18 4.5-4-4.5-4.5-9.5h-6l-29.5-13-20.5-12-29.25 8.5"/><path class="cls-3" d="M1206.06 185l-39.5-2-15 4.88-5.5-2.88-21 5.75-5.5-5.75-6-4-21 19.5-8 9.25-21-3.25-6-4-20.5 16.5-18 10.5-24 17.5-19.5-4.37-9.5-4.38-10 8.75h-5l-28 22-10.5-6-19-8.5-5.5-7.5-21.5-17.5-13.5-4.5-18.5 9-23.5-15-18-16.5-4-4-14 8-13.5 6.5-16 12"/><path class="cls-3" d="M1437.06 140.25l-31.5-8.25-7-4.5-15.5 4.5-22 16.5-29.5 12.5-23.5-7.5-32.5 2.5-14.5-5-12.5-5-7 10-9 5-26.5 24-19.75 23.13-23.25 4.87-11.5 19-2.75 18.75-15.25 3.75h-8.5l-11.5 8.5-12.5 3"/><path class="cls-3" d="M1319.81 244.81l26.5-8.81 30.75-13.5-2-9.5 2-12.5 28.5-12.62-3.5-10.88v-16l35-20.75 25.5-16.25 8 3.5 11.5-13.5 25.5-17 11 3.5 21 13.5"/><path class="cls-3" d="M1535.39 111.32l23.67-10.82h3l18.5-11h8.5l4 5.5 16.5 5.5 10 6.75 19-9.5 7-.75 11.5-7.5 23.33 11 44-11 18.67-20.17 24 2.67 7.33-11.33h12L1807.06 40l21-12.5 19.67 21.17 13.33 4.66 16.67-7.33 7.33-6 36-9.2"/></g><path class="cls-5" d="M400.37 140.35l8.39 10.6M366.06 97l21.24 26.83m-22.79-7.79l56.9 71.89M298.32 32.43l34.35 43.4m48.38 82.12l11.78 14.88m-56.32-71.45l24.64 31.74m-40.77-52.29l7.41 9.28M277.39 27l38.1 47.71m24 51.73l21.89 27.66m-25.7-11.46l25.91 32.73m-55.35-48.93l19.39 24.5m-124.57 19.05l22.35 28.23m-76.46-96.58l28.03 35.4m-14.01 3.3l34.82 44m-58.41-73.8l10.28 13m7.44 30.4l14.96 18.89m-69.73-88.08l33.58 42.41m45.47 78.45l12.23 15.44m-58.36-73.71l16.81 21.23M87.95 90.11l26.92 34m28.76 57.34l18.81 23.76m-74.49-94.1l26.22 33.12m732.72 102.12l10.84 13.68m-11.9 5.97l15.9 20.09m-59.8-75.53l31.06 39.22m-31.06-18.22L829.2 266m-29.77-17.22l14.77 18.66m-45.04-56.88l19.3 24.38M763.85 225l16.9 21.35m535.21-77.27l-11.99 15.16m25.09-10.7l-40.87 51.62m28.14-14.53l-22.93 28.97m78.61-99.31l-45.12 57m11.51 6.46l-20.25 25.58m70.99-89.68l-33.32 42.09m16.63 0l-10.4 13.14m47.55-60.07l-28.49 35.99m-19.06 45.08l-7.04 8.89m38.36-48.46l-12.12 15.31" id="_1" data-name="1"/></g></g></svg>