<svg xmlns="http://www.w3.org/2000/svg" viewBox="0 0 1923 827.33"><defs><style>.cls-1{fill:#2d2d2d}.cls-2,.cls-3,.cls-4{fill:none;stroke-linecap:round;stroke-linejoin:round}.cls-2,.cls-4{stroke:#282828}.cls-2,.cls-3{stroke-width:6px}.cls-3{stroke:#2b2b2b}.cls-4{stroke-width:4px}</style></defs><title>low</title><g id="Слой_2" data-name="Слой 2"><g id="_5" data-name="5"><path class="cls-1" d="M1923 827.33v-596.9l-29.96 7.28-171.37-110.96-32-16.42-10-9.66-19.34 5.66h-24.66L1631 95l-25.33-11.33-19.34-19.34-22.66 4.67-16.67 8.67-12.67-8.67-2.66-9.33-17.34-24-3.33-7.5-18.67-9.17-16-16-26 16-36 11.67-16.66-5-10.67 10-16.67 8L1331 87l-27.33 8H1287l-10 15.33-39.33 32.84-14.67 7.16-11.33-4.66-24.67 15.66-6.67-2-34 22.34-10.66-5.34-3.34 2.05-21.33-10.71-28 17.33-33.33 18.83-30 27.59-5.34-3.09-32 23.07-8-2.4-11.33 4.96-9.33-5.13L927 259.08l-6-4.75-29.33-19.83-3.34-6.17-24.66 13.42-8-2.75-23.34 15.33-18-11-12-1.58-16-13.42-14 10.67-5.33-4.5-19.5 14.5-13.83-5.67L717 225.67l-36.67-16-18-20.59-20.66-21.41-11.34-6.34-24.66 6.34L587 155l-3.5-9.33-20.5-5-5.75-5-28.92 10-8-13.34-4.66-20.66-6.58-10.84-27.42-11.16-4.67-8.38-28-13.14-4-4.61-21.87-11.87L403 65.33l-6.67-3.59L351 100.83h-21.27l-59.96-32.68-17.44-12.82h-8.66l-26-28.33-10 9.33H203L174.33 59l-4.66-7.33-26-7.34L120.33 59h-6.66l-30 25.5-.6 1.5L59 76.33 3 104.92v722.41h1920z" id="_4" data-name="4"/><g id="_2" data-name="2"><path class="cls-2" d="M3 104.92l56-28.59 40.67 16.33L117 109l26.67-2.67 16 10.67m110.1-48.85l-17.44-12.82h-8.66l-26-28.33-10 9.33H203L174.33 59l-4.66-7.33-26-7.34L120.33 59h-6.66l-30 25.5m440.66 74.83L509.09 155l-13.71-14.33-6.38-13-40-16V85.48l-25.87-33.81m942.54 116l32-20.92L1387 137v-10.25l22.67-8.21L1439 91l-3.33-13.33V53l36.66-34 4-16M1287 161.33l3.83-18.16 26.5-16.42 4.42-26.08L1331 87"/><path class="cls-3" d="M1721.67 126.75l-32-16.42-10-9.66-19.34 5.66h-24.66L1631 95l-25.33-11.33-19.34-19.34-22.66 4.67-16.67 8.67-12.67-8.67-2.66-9.33-17.34-24-3.33-7.5-18.67-9.17-16-16-26 16-36 11.67-16.66-5-10.67 10-16.67 8L1331 87l-27.33 8H1287l-10 15.33-39.33 32.84-14.67 7.16-11.33-4.66-24.67 15.66-6.67-2-34 22.34-10.66-5.34-3.34 2.05-21.33-10.71-28 17.33-33.33 18.83-30 27.59-5.34-3.09-32 23.07-8-2.4-11.33 4.96-9.33-5.13L927 259.08l-6-4.75-29.33-19.83-3.34-6.17-24.66 13.42-8-2.75-23.34 15.33-18-11-12-1.58-16-13.42-14 10.67-5.33-4.5-19.5 14.5-13.83-5.67L717 225.67l-36.67-16-18-20.59-20.66-21.41-11.34-6.34-24.66 6.34L587 155l-3.5-9.33-20.5-5-5.75-5-28.92 10-8-13.34-4.66-20.66-6.58-10.84-27.42-11.16-4.67-8.38-28-13.14-4-4.61-21.87-11.87L403 65.33l-6.67-3.59L351 100.83h-21.27"/></g><path class="cls-4" d="M196.23 85.47l7.36 9.29m-28.68-36.22l16.63 21.01m-14.47 2.72l14.47 18.28M172 75.86l-23.79-30.05m-1.01 19.72l22.38 28.28m-17.91-1.63l6.84 8.65m-26.9-33.98l14.75 18.63m-28.93-15.55l21.89 27.65M100.8 69.93l19.54 24.68m380.23 9.37l8.52 10.76m-2.7 17.59l12.27 15.51m-39-49.27l19.57 24.72m-39.21-28.53l13.38 16.9M1348.7 91l-12.35 15.61m63.54-80.28l-33.57 42.41m-16.05 41.28l-13.92 17.59M1368.5 87l-12.41 15.67m57-72l-38.27 48.34m-12.82 37.2l-9.02 11.4m38.64-48.82l-24.97 31.54m58.04-73.31l-21.63 27.31m-57.47 93.61l-7.7 9.73m37.73-47.67l-16.69 21.09M1421 62.68l-33.9 42.82m72.05-91.01l-19.93 25.18m-13.46 38l-16.73 21.13" id="_1" data-name="1"/></g></g></svg>