<svg xmlns="http://www.w3.org/2000/svg" viewBox="0 0 418.95 273.91"><defs><style>.cls-1,.cls-2{fill:none;stroke:#937d4a;stroke-linecap:round;stroke-linejoin:round}.cls-1{stroke-width:6px}.cls-2{stroke-width:4px}</style></defs><title>adv-2</title><g id="Слой_2" data-name="Слой 2"><g id="_3" data-name="3"><path class="cls-1" d="M3 167.65l17.73-50.8H32.4l18.18 50.8h-13.8l-3.29-10.2H19.92l-3.15 10.2zm19.8-21.58h7.6l-3.5-14.86m27.04 36.44v-50.8h20.3a21.49 21.49 0 0 1 6.68 1 16.52 16.52 0 0 1 5.24 2.73 17.57 17.57 0 0 1 3.7 4 17.39 17.39 0 0 1 2.26 4.87 19.2 19.2 0 0 1 .74 5.31 18.53 18.53 0 0 1-4.65 12.36 15.91 15.91 0 0 1-5.86 4.09 20.48 20.48 0 0 1-8.05 1.52h-7.53v14.89zm12.82-26.28h7.46a5.86 5.86 0 0 0 2.84-.68A4.8 4.8 0 0 0 79 138.9a8 8 0 0 0 .93-2.44 6.42 6.42 0 0 0 .14-1.33 7.11 7.11 0 0 0-.14-1.4 8.05 8.05 0 0 0-.93-2.43 4.81 4.81 0 0 0-1.91-1.79 5.86 5.86 0 0 0-2.84-.68h-7.48zm31.51 26.28v-50.8h20.3a21.49 21.49 0 0 1 6.68 1 16.52 16.52 0 0 1 5.24 2.73 17.57 17.57 0 0 1 3.7 4 17.39 17.39 0 0 1 2.26 4.87 19.2 19.2 0 0 1 .74 5.31 18.53 18.53 0 0 1-4.65 12.36 15.91 15.91 0 0 1-5.86 4.09 20.48 20.48 0 0 1-8.05 1.52h-7.54v14.89zm12.82-26.28h7.46a5.86 5.86 0 0 0 2.84-.68 4.8 4.8 0 0 0 1.91-1.79 8 8 0 0 0 .93-2.44 6.42 6.42 0 0 0 .14-1.33 7.11 7.11 0 0 0-.14-1.4 8.05 8.05 0 0 0-.93-2.44 4.81 4.81 0 0 0-1.91-1.79 5.86 5.86 0 0 0-2.84-.68h-7.46zm29.11 17.77l8.09-7.61a12.58 12.58 0 0 0 3.65 3 13.92 13.92 0 0 0 4.35 1.59 16.6 16.6 0 0 0 2.8.25 8.29 8.29 0 0 0 1.33 0 6 6 0 0 0 3.19-1.19 3.35 3.35 0 0 0 1.37-2.73 3 3 0 0 0-1.26-2.31 9.2 9.2 0 0 0-3.23-1.72 25.9 25.9 0 0 0-4.17-.91 23.1 23.1 0 0 1-5.92-1.73 20.27 20.27 0 0 1-5-3.19 13.65 13.65 0 0 1-3.53-4.83 15.53 15.53 0 0 1-1.29-6.39 13.76 13.76 0 0 1 1.57-6.55 13.48 13.48 0 0 1 4.17-4.79 20.46 20.46 0 0 1 5.9-2.83 23.51 23.51 0 0 1 6.85-1 24 24 0 0 1 9.36 1.8 21 21 0 0 1 8 6.27l-8.43 6.38a12.22 12.22 0 0 0-4.48-3.12 11.67 11.67 0 0 0-4.51-1h-.24a6.37 6.37 0 0 0-3.74 1.26 4.12 4.12 0 0 0-1.64 3.33q.17 3.29 6.71 4.73 2.13.39 3.85.82a35.88 35.88 0 0 1 3.64 1.16 20.29 20.29 0 0 1 3.38 1.6 15.42 15.42 0 0 1 2.8 2.19 11.49 11.49 0 0 1 2.19 2.93 15.31 15.31 0 0 1 1.29 3.82 16.76 16.76 0 0 1 .35 3.82v.95a12.94 12.94 0 0 1-1.35 5.37 14.11 14.11 0 0 1-3.22 4.26 20.55 20.55 0 0 1-4.53 3.05 23.46 23.46 0 0 1-5.34 1.91 25.34 25.34 0 0 1-5.62.63 20 20 0 0 1-9.29-2.37 24.35 24.35 0 0 1-8.05-6.85zm189.24 8.51l17.73-50.8h11.67l18.16 50.8h-13.8l-3.29-10.2h-13.55l-3.15 10.2zm19.8-21.58h7.6l-3.5-14.86m29.04 36.44v-50.8h12.82V155H416v12.68z"/><path class="cls-1" d="M350.88 175.75v95.16H82.96V161.72m0-53.5V3h267.92v104.22"/><path class="cls-2" d="M300.11 73.72v139.14m-22.5-164.67v140.94m0-115.93v22.77m22.5 71.68h-95m0 0l95-93.93m-22.5 22.25l22.5-22.25m-11.35-32.61l22.25 22.5h-22.77m-83.13 104.04v-46.96m0 0l72.5-72.5m22.5 25.53h-47.5m0 0v46.97m0 0h-47.5m23.75 46.96V97.2m-23.75 46.09h95m-22.5 45.84l22.5 23.73m-22.5-23.73h22.5m-22.5 0l22.5-21.48m0 0l-22.5-24.36m0-22.6h22.5m-46.74 46.96l46.74-46.96m0 0l-22.5-24.72m22.5 1.23h-71.25m0 0l23.75 23.49m0-46.97l25 22.25m-72.5 24.72l47.5 46.96m0-24.36v24.36m35.63-104.04v-22.5M97.96 242.3v-66.55m45.97 80.16H97.96m151.13 0h-16.5m84 0h-49m68.28-66.78v47.47m0-206.6v72.87M200.11 18h40.73M97.96 36.57V18h76.13m-64.13 175.57V182.1m0 54.5v-31.57m213.91-29.28v50.97M109.96 94.31V47.13m-12 0v13.59m63.01-32.37h53.79"/></g></g></svg>