<svg xmlns="http://www.w3.org/2000/svg" viewBox="0 0 315.36 273.91"><defs><style>.cls-1,.cls-2{fill:none;stroke:#937d4a;stroke-linecap:round;stroke-linejoin:round}.cls-1{stroke-width:4px}.cls-2{stroke-width:6px}</style></defs><title>adv-5</title><g id="Слой_2" data-name="Слой 2"><g id="_5" data-name="5"><path class="cls-1" d="M286.38 18l-17.27 29.91m-42.96 74.4l8.03-13.9M271.34 18h15.04m-41.04 0h12.06m-119.72 0h13M52.11 58.06L28.98 18h97.77"/><path class="cls-2" d="M142.56 244.72l15.12 26.19 25.06-43.4m50.63-87.69l31.77-55.04L312.36 3H3l35.42 61.35"/><path class="cls-2" transform="rotate(-21.06 145.56 131.803)" d="M77.31 38.13h136.55v187.38H77.31z"/><path class="cls-1" d="M72.26 84.99l96.32-37.08m-89.99 53.52l96.32-37.08m-89.99 53.52l96.32-37.08m-90 53.52l96.33-37.09m-90 53.52l96.33-37.08m-90 53.52l96.32-37.08m-89.99 53.52l48.16-18.54m26.95-15.76a21.15 21.15 0 0 1 12.86 2.92 22.88 22.88 0 0 1 7.95 10.14c2 4.52 3 9.69 1.6 14.42s-5.75 8.78-10.75 8.69c-3.37-.06-7.51-1.83-9.3-4.8"/><path class="cls-1" d="M177.54 158.12a14.56 14.56 0 0 1 16-.76 18.83 18.83 0 0 1 7.22 9.22 12.17 12.17 0 0 1 .91 7.45c-.64 2.46-2.83 4.66-5.38 4.6a5.86 5.86 0 0 1-4.46-2.63c-1.31-1.85-2.84-5-2.13-7.37 1.08-3.58 4.89-2.86 5.58.68"/><path class="cls-1" d="M198.31 144.73c10.2 3.74 16 16.24 16.65 26.43.69 10.59-7 21.92-18.71 21.05-5.63-.42-12.81-4-15.15-9.46m-.57-6.35a8.53 8.53 0 0 1 3.47-4.1m-5.61-4.58a11.42 11.42 0 0 1 6.7-5.28M61.37 27.64h46"/></g></g></svg>