<svg xmlns="http://www.w3.org/2000/svg" viewBox="0 0 317.3 272.48"><defs><style>.cls-1,.cls-2{fill:none;stroke:#937d4a;stroke-linecap:round;stroke-linejoin:round}.cls-1{stroke-width:6px}.cls-2{stroke-width:4px}</style></defs><title>adv-6</title><g id="Слой_2" data-name="Слой 2"><g id="_6" data-name="6"><path class="cls-1" d="M234.31 59.49l62.34 45.29-53.51 164.7H69.98l-53.52-164.7L156.56 3l55.61 40.41"/><path class="cls-2" d="M74.53 234.96L52.32 166.6m-8.92-27.34l6.61 20.32m112.33 94.9H80.87m164.06-39.04l-12.69 39.04h-42.65M266 150.19l-11.33 34.87M137.03 35.73l19.53-14.19 22.09 16.05M34.1 110.52l42.86-31.14m14.71-10.69l-9.27 6.73m-14.95 98.9L48.2 115.1m79.64 127.38H98.41"/><path class="cls-2" d="M228.22 228.02l-4.69 14.46h-84.37m110.57-80.65l-15.42 47.46M97.37 79.38l16.99-12.35"/><path class="cls-1" d="M210.12 85.57l10.09-32h-86.35l-10.39 32-6.67 20.53-10.66 32.83c10.4-.87 22.72-1.71 33.88-.71a64.53 64.53 0 0 1 14.69 2.84c11.49 3.87 19.21 18.75 16.21 31.22C168.1 184 157.73 193 145.13 194.7c-13.82 1.89-24.11-8.18-30.32-17l-26.14 18.5c14.16 20 32.69 30.75 52.84 30.75a58.47 58.47 0 0 0 8-.55c25.55-3.51 46.66-22.25 52.53-46.62a59.25 59.25 0 0 0-5.5-41.33c-7-13.37-18.23-23.21-31.59-27.71a88.33 88.33 0 0 0-14.85-3.5l7-21.66zM16.46 197c-6.85-1.18-11.31-3.64-12.86-7.44-2.81-6.91 4.34-17.29 18.89-29.42M67.45 193c-15.27 3.13-28.51 4.8-39 4.87M250.51 59.84c35-7.1 59.12-6.46 63.19 3.55 3.89 9.55-11.29 25.76-38.74 44"/><path class="cls-1" d="M234.33 131.17c-18.57 9.72-39.56 19.47-62.11 28.65-32.44 13.2-63.43 23.31-89.82 29.78M275 107.4a23.55 23.55 0 0 0-40.64 23.77m-.03 0A23.55 23.55 0 1 0 275 107.4"/></g></g></svg>