<svg xmlns="http://www.w3.org/2000/svg" viewBox="0 0 288.89 282.69"><defs><style>.cls-1,.cls-2{fill:none;stroke:#937d4a;stroke-linecap:round;stroke-linejoin:round}.cls-1{stroke-width:6px}.cls-2{stroke-width:4px}</style></defs><title>prod-4</title><g id="Слой_2" data-name="Слой 2"><g id="_4" data-name="4"><path class="cls-1" d="M78.81 255.28l-32.54-7.29L3 109.64 101.18 3l141.44 31.7 43.27 138.35-98.18 106.64-16.12-3.61"/><path class="cls-2" d="M86.75 241.69L58 235.25l-17.53-56.06m228.52-9.93l-53.6 58.22m39.25-104.1l4.82 15.42m-22.91-73.25l15.43 49.31m-40.65-71.8l19.56 4.39 2.57 8.21M53.41 77.04l52.94-57.51 18.78 4.21m-95.29 78.89l12.51-13.58m213.12 77.18l-23.86 25.91m-2.49-110.15l16.08 51.42M82.5 63.16l27.98-30.4M57.09 192.15l-19.03-60.84m27.18 86.89l-4.38-14.02"/><path class="cls-1" d="M179.83 112.07a87.09 87.09 0 0 1 10.9 5c6.63 3.64 12.64 5.7 12.92 14.17a302.14 302.14 0 0 1-2.78 51.87 3.79 3.79 0 0 1-.78 2.15 3.53 3.53 0 0 1-1.44.8 25.27 25.27 0 0 1-7.62 1.42m-11.3-75.91a31.79 31.79 0 0 0 4.34-11.22"/><path class="cls-2" d="M177.76 93.73h1.73"/><path class="cls-1" d="M190.62 187.45l-1.34 60.27"/><path class="cls-2" d="M170.77 91h1.65c2.29-1.59 4.74-3.23 7.52-3.4a15.52 15.52 0 0 1 6.26 1.4l4.47 1.65-.1.78-2.82 3.86a14.09 14.09 0 0 1-2.22 2.57 8.25 8.25 0 0 1-9.07.62 38.31 38.31 0 0 1-3.5-2.3h-2.74"/><path class="cls-1" d="M187.3 247.72c5.21 1.62 9.63 4.45 12.43 9.22a1.34 1.34 0 0 1 .26.83 1.28 1.28 0 0 1-.57.76c-3.48 2.68-10.61 4.23-14.6 2.06-4.28-2.32-9-4.15-13.23-6.5m-3.95 2.02c1.34-.64 2.67-1.31 4-2m1.23-177.86c3.32.13 5.64.24 7.28 3.56l3.71 7.46"/><path class="cls-1" d="M167.69 64.81c.88-.07 1.77-.11 2.63-.19h2.53c3.13.29 6.59.11 9 2.21s3.85 4.84 5.31 7.59l6.42 12.11c2.11 4 4.28 8.34 3.46 12.76-1.1 5.92-7 9.5-10.75 14.18m-14.7 135.7v-15.74m27.82-48.13q1.24 20.86 2.78 41.7m-12.31 5a64.81 64.81 0 0 0 12.49-3.43m-38.21-128.35a18.71 18.71 0 0 0 5.51-3.22m-62.36 15.07a87.09 87.09 0 0 0-10.9 5c-6.63 3.64-12.64 5.7-12.92 14.17a302.14 302.14 0 0 0 2.78 51.87 3.79 3.79 0 0 0 .73 2.19 3.53 3.53 0 0 0 1.44.8 25.27 25.27 0 0 0 7.62 1.42m11.34-75.95a31.79 31.79 0 0 1-4.34-11.22"/><path class="cls-2" d="M109.37 93.73h-1.73"/><path class="cls-1" d="M96.51 187.45l1.34 60.27"/><path class="cls-2" d="M116.37 91h-1.65c-2.29-1.59-4.74-3.23-7.52-3.4a15.52 15.52 0 0 0-6.27 1.4l-4.47 1.65.1.78 2.82 3.86a14.09 14.09 0 0 0 2.22 2.57 8.25 8.25 0 0 0 9.07.62 38.31 38.31 0 0 0 3.5-2.3h2.74"/><path class="cls-1" d="M99.83 247.72c-5.21 1.62-9.63 4.45-12.43 9.22a1.34 1.34 0 0 0-.26.83 1.28 1.28 0 0 0 .57.76c3.48 2.68 10.61 4.23 14.6 2.06 4.28-2.32 9-4.15 13.23-6.5m3.95 2.02c-1.34-.64-2.67-1.31-4-2m-1.22-177.86c-3.32.13-5.64.24-7.28 3.56l-3.71 7.46"/><path class="cls-1" d="M119.44 64.81c-.88-.07-1.77-.11-2.63-.19h-2.53c-3.13.29-6.59.11-9 2.21s-3.85 4.84-5.31 7.59l-6.43 12.1c-2.11 4-4.28 8.34-3.46 12.76 1.1 5.92 7 9.5 10.75 14.18m14.71 135.71v-15.74M87.72 185.3q-1.24 20.86-2.78 41.7m12.31 5a64.81 64.81 0 0 1-12.49-3.43M123 100.22a18.71 18.71 0 0 1-5.53-3.22m35.62-.18a100.66 100.66 0 0 1 12.6 5.83m.19-.17a200.8 200.8 0 0 1 22.45 34.83m.11 1.32a26.8 26.8 0 0 1-10.9 16.57m-38.76-6.7a160.42 160.42 0 0 0 37.57 7.5M153 96.25a36.75 36.75 0 0 0 5-13"/><path class="cls-2" d="M150.71 75.62h2"/><path class="cls-1" d="M165.88 155.96l-2.17 97.66m-29.65-156.8a100.66 100.66 0 0 0-12.6 5.83m-.19-.17a200.8 200.8 0 0 0-22.45 34.83m-.11 1.32a26.8 26.8 0 0 0 10.9 16.57m55.17-18.2a18.25 18.25 0 0 1-1.52 5.37l-4-1.78a4.42 4.42 0 0 0-1.49-.46 4.47 4.47 0 0 0-2.15.63c-14.38 7-28.72 14-44.77 15.24m23.32-59.75a36.75 36.75 0 0 1-5-13"/><path class="cls-2" d="M142 78.46a44.28 44.28 0 0 1-4 2.66 9.54 9.54 0 0 1-10.48-.71 16.28 16.28 0 0 1-2.56-3L121.64 73l-.12-.9 5.17-1.91c2.33-.86 4.75-1.74 7.24-1.58 3.21.21 6 2.1 8.69 3.93h1.91c2.65-1.83 5.47-3.73 8.69-3.93 2.48-.16 4.9.72 7.24 1.58l5.17 1.91-.12.9-3.26 4.46a16.28 16.28 0 0 1-2.56 3 9.54 9.54 0 0 1-10.48.71 44.28 44.28 0 0 1-4-2.66zm-5.56-2.84h-2"/><path class="cls-1" d="M121.27 155.96l2.17 97.66m38.29-.01c6 1.87 11.13 5.14 14.36 10.66a1.54 1.54 0 0 1 .3 1 1.48 1.48 0 0 1-.65.88c-4 3.09-12.26 4.89-16.88 2.38-4.95-2.69-10.38-4.79-15.29-7.51"/><path class="cls-1" d="M125.42 253.61c-6 1.87-11.13 5.14-14.36 10.66a1.54 1.54 0 0 0-.3 1 1.48 1.48 0 0 0 .65.88c4 3.09 12.26 4.89 16.88 2.38 4.95-2.69 10.38-4.79 15.29-7.51M129.4 68.15l4.28-8.62c1.9-3.83 4.58-4 8.42-4.11h2.9c3.84.15 6.52.28 8.42 4.11l4.28 8.62"/><path class="cls-1" d="M126.57 98.42C122.19 93 115.41 88.88 114.14 82c-.95-5.11 1.57-10.16 4-14.75l7.42-14c1.68-3.17 3.42-6.42 6.13-8.77s6.79-2.21 10.41-2.55h2.9c3.62.34 7.62.12 10.41 2.55s4.45 5.6 6.13 8.77l7.42 14c2.44 4.59 4.95 9.64 4 14.75-1.27 6.84-8.05 11-12.43 16.39m-41.43 38.39a321.41 321.41 0 0 1 31.9-9.61m.39.05c5 1.08 9.84 4.65 13.53 8.18m-46.11-.15c-1.47-4.91 5-6.8 8-9a3.78 3.78 0 0 1 4.67-.59l7.31 2.85m4.78 126.77v-71.33m31.35-26.7q2.16 36.22 4.83 72.41m-15.04 5.67a70 70 0 0 0 15-4.72m-67.46-73.36q-2.16 36.22-4.83 72.41m15.04 5.67a70 70 0 0 1-15-4.72"/></g></g></svg>