<svg id="Слой_1" xmlns="http://www.w3.org/2000/svg" xmlns:xlink="http://www.w3.org/1999/xlink" viewBox="0 0 632.3 642"><style>.st0{clip-path:url(#SVGID_2_)}.st1,.st2{fill:none;stroke:#937d4a}.st1{stroke-width:4;stroke-linecap:round;stroke-linejoin:round}.st2{stroke-miterlimit:10}.st2,.st3{display:none}.st4,.st5,.st6{display:inline}.st5{clip-path:url(#SVGID_4_)}.st6{clip-path:url(#SVGID_6_)}.st7{display:none;fill:none}.st8{fill:none;stroke:#937d4a;stroke-width:6;stroke-linecap:round;stroke-linejoin:round}</style><title>s-1</title><g id="Слой_2"><g id="Слой_1-2"><defs><path id="SVGID_1_" d="M.5.5h631.3v641H.5z"/></defs><clipPath id="SVGID_2_"><use xlink:href="#SVGID_1_" overflow="visible"/></clipPath><g class="st0"><path class="st1" d="M316.2 37.9V2.5"/></g><path class="st2" d="M.5.5h631.3v641H.5z"/><path class="st1" d="M273.2 203L227.5 77.4m-20.3-55.7L219.4 55m-69.9 67.4l103.9 123.8M111.4 77l22.8 27.2m-42.6 87.2l147.9 85.3M40.3 161.8L71 179.5M60.8 276l165.6 29.2"/><g class="st3"><defs><path id="SVGID_3_" d="M.5.5h631.3v641H.5z"/></defs><clipPath id="SVGID_4_" class="st4"><use xlink:href="#SVGID_3_" overflow="visible"/></clipPath><g class="st5"><path class="st1" d="M37.4 271.9l-34.9-6.2"/></g></g><path class="st2" d="M.5.5h631.3v641H.5z"/><path class="st1" d="M184.2 344.3l26.4-4.7M60.8 366l35.9-6.3"/><g class="st3"><defs><path id="SVGID_5_" d="M.5.5h631.3v641H.5z"/></defs><clipPath id="SVGID_6_" class="st4"><use xlink:href="#SVGID_5_" overflow="visible"/></clipPath><g class="st6"><path class="st1" d="M2.5 376.3l34.9-6.1"/></g></g><path class="st7" d="M.5.5h631.3v641H.5z"/><path class="st1" d="M153.9 414.7l-62.3 36M71 462.5l-30.7 17.8m159.8-20.9l-22.9 27.2m-46 54.9L111.4 565m116.1-.3l21.4-58.7m-29.5 81l-12.2 33.3m109-40v-10.5m88.7-5.1L383.5 506m41.6 114.3L413 587m42.1-100.4l-22.8-27.2M520.9 565l-19.8-23.5m39.6-90.8l-64.3-37.2M592 480.3l-30.7-17.8M448.4 344.3l-28.9-5.1m152 26.8l-39.6-7m39.6-83l-167.4 29.5m136.6-114.1l-149.4 86.2m170-98.1l30.7-17.7m-109.2-39.4L377.6 247.8m120.5-143.6L520.9 77m-116 .4l-46.7 128.1M413 55l12.1-33.3M119.3 321h99.9M107 321H34.7m17 96.3l67.9-24.7m36.3 62.9l-55.3 46.4m117.2-10.4l5.6-9.8m-11.8 20.5l-36.2 62.6m103.2-30.5l-11.3 63.9m97.7 0l-11.2-63.8m60.8-42.9l-5.7-9.8m11.9 20.5l36.1 62.6m19.5-109.3l55.4 46.4m-19-109.3l67.9 24.7M513 321H411.2m114.2 0h72.2m-96.5-67.3l-103.5 37.7m183.1-66.7l-67.9 24.8m-45.8-55l-82.2 68.9m91.6-76.9l55.4-46.4m-117.2 10.4l-45.5 78.8m51.7-89.5l36.1-62.5M352.5 115L365 43.8m-97.7 0l12.5 71.2m-62 35.5l44.3 76.8m-50.5-87.5l-36.2-62.5m-10 117.2l80.7 67.7m-90.2-75.7l-55.3-46.4m30.6 113.6L233 290.8m-113.4-41.3l-67.9-24.8"/><path class="st8" d="M295.3 180.7L143.7 511.4m172-330.7l-113.2 247m-13.2 12.7l-52.6 114.8m52.6-114.8l13.2-12.7m-58.8 83.7l10.2 6.2m-10.2-6.2l-7 43.8m67.5-177.8l-33.3-31.8m144.8 138.3L219.4 392m-37.1 35.4l-85.6-81.8m219 209.2l-123-117.5m-96-91.7h74.2m124.4-216.2H336v51.3h-40.7zM308.7 86h14v43.4h-14zm27.4 94.7l151.6 330.7m-172-330.7l113.2 247m13.2 12.7l52.6 114.8m-52.6-114.8l-13.2-12.7m58.8 83.7l-10.2 6.2m10.2-6.2l7 43.8m-67.5-177.8l33.3-31.8M315.7 483.9L412 392m37.1 35.4l85.6-81.8m-219 209.2l123-117.5m96-91.7h-74.2"/></g></g></svg>