<svg xmlns="http://www.w3.org/2000/svg" viewBox="0 0 631.34 599.7"><defs><style>.cls-1,.cls-2{fill:none;stroke:#937d4a;stroke-linecap:round;stroke-linejoin:round}.cls-1{stroke-width:4px}.cls-2{stroke-width:6px}</style></defs><title>s-2</title><g id="Слой_2" data-name="Слой 2"><g id="_4" data-name="4"><path class="cls-1" d="M315.67 19.9v151.06M226.99 35.53l36.52 100.33M149 80.56l53.99 64.33m-92.05-109.7l22.77 27.15m-42.59 87.2L157 187.58M39.83 119.93l30.69 17.72m-10.2 96.51l66.83 11.79M36.9 230.03L2 223.88m58.32 100.33l90.13-15.89M2 334.5l34.9-6.16m81.47 64.76l-27.25 15.73m-20.6 11.89l-30.69 17.72m186.94-53.3L149 477.82m-15.29 18.22l-22.77 27.14m152.81-101.35l-36.76 101.01m-8.14 22.35l-12.11 33.3m108.93-40.01v-98.02m0 121.8v35.44m88.69-74.86l-36.9-101.37m57.15 157.02l-12.12-33.3m69.85-67.37l-78.02-92.99m116.09 138.35l-22.78-27.14m26.33-96.6l16.27 9.39m51.28 29.61l-30.69-17.72m10.2-96.51l-90.6-15.97m148.92 26.26l-34.89-6.16m-23.43-94.18l-67.37 11.88m90.8-16.01l34.89-6.15m-89.11-74.34L474 187.78m86.82-50.13l30.69-17.72M482.34 80.56l-54.16 64.55m69.45-82.77l22.78-27.15m-116.05.34l-36.47 100.19M118.82 279.19h13.09m-25.44 0H34.21m96.48 67.32l16.54-6.02m-96.05 34.96l67.91-24.71m12.64 82.79l12.84-10.77m-12.84 10.77l-31.67 26.58m117.19-10.45l27.06-46.87m-33.24 57.57l-36.13 62.58m106.55-49.89l6.58-37.3m-8.73 49.46l-12.54 71.16m83.05-83.32l-6.61-37.5m21.31 120.82L352 485.21m34.83-82.77l27.27 47.22m6.17 10.7l36.13 62.58m74.89-62.83L496.6 431m4.05-84.49l-17.4-6.33m29.01 10.56l67.9 24.71m-67.64-96.26h-13.64m25.99 0h72.27m-96.49-67.33l-5.84 2.13m85.35-31.07l-67.9 24.72m-45.79-54.99l-14.93 12.53m24.39-20.46l55.36-46.45M414.1 108.71l-14.93 25.85m57.23-99.13l-36.13 62.58m-70.42-12.68l-11.27 63.94M352 73.16L364.55 2m-83.06 83.33l11.36 64.41M266.8 2l12.54 71.16m-47.22 61.32l-14.87-25.77m-6.18-10.7l-36.13-62.58m4.56 129.5l-14.62-12.28m-9.46-7.93l-55.36-46.45m30.63 113.59l5.38 1.96m-16.98-6.18l-67.91-24.72"/><g id="Слой_92" data-name="Слой 92"><path class="cls-2" d="M315.39 260.04l62.35 62.75 35.65-35.89-62.34-62.75-35.66 35.89zM195.45 165.9l-36.56 36.79a68.88 68.88 0 0 0 0 97.1l22.85 23 35.66-35.89-23.93-24.09a16.41 16.41 0 0 1 0-23.14l39.21-39.46a16.41 16.41 0 0 1 23.29 0l23.78 23.94 35.66-35.89-22.24-22.36a68.88 68.88 0 0 0-97.72 0zm21.95 192.78l35.65-35.89"/><path class="cls-2" d="M398.12 200.21a16.41 16.41 0 0 0-23.29 0l-23.78 23.94L315.4 260l-62.34 62.75 50.7 51a16.41 16.41 0 0 0 23.29 0l50.7-51 35.65-35.85 23.93-24.09a16.41 16.41 0 0 0 0-23.14z"/><path class="cls-2" d="M183.48 392.81l33.91-34.13 49.14 49.45a68.88 68.88 0 0 0 97.73 0l49.14-49.45 35.66-35.89 22.85-23a68.88 68.88 0 0 0 0-97.1l-36.57-36.79a68.88 68.88 0 0 0-97.73 0l-22.21 22.37-35.66 35.89-62.34 62.74-35.66 35.89-34 34.25m289.62-94.23L413.4 286.9l-35.66 35.89-50.7 51a16.41 16.41 0 0 1-23.29 0l-50.7-51L315.4 260l35.66-35.89 23.78-23.94a16.41 16.41 0 0 1 23.29 0l39.21 39.46a16.41 16.41 0 0 1-.01 23.18z"/><path class="cls-2" d="M449.05 322.79l-35.66 35.89 16.17 16.27 35.66-35.89-16.17-16.27zm-47.33-24.63l-62.1-62.5m113.69 114.43l-15.69-15.8m-48.16-23.3l-62.34-62.75m114.17 114.91l-16.17-16.27m-218.9-48.72l-24.39-24.55a32.59 32.59 0 0 1 0-45.95l39.3-39.56a32.59 32.59 0 0 1 46.24 0l24.09 24.25M241.87 334l50.95 51.28a32.59 32.59 0 0 0 46.24 0l110.43-111.11a32.59 32.59 0 0 0 0-45.95l-39.3-39.56a32.59 32.59 0 0 0-46.24 0L172.26 381.59"/><path class="cls-2" d="M193.71 310.74L170.11 287a51.57 51.57 0 0 1 0-72.7l37.55-37.79a51.57 51.57 0 0 1 73.17 0L304 199.77m-74.63 146.86l50 50.3a51.57 51.57 0 0 0 73.17 0L461.2 287.55a51.57 51.57 0 0 0 0-72.7l-37.55-37.79a51.57 51.57 0 0 0-73.17 0L159.72 369m-.03 0a8.47 8.47 0 0 0-12-12m24.69 24.28A8.85 8.85 0 1 0 160 368.65m23.33 24.07a7.9 7.9 0 1 0-11.06-11.28"/></g><path class="cls-2" d="M500.31 374.38l-35.66 35.89 8.22 8.27a14.31 14.31 0 0 0 20.31 0L508.66 403a14.31 14.31 0 0 0 0-20.18z" id="Слой_95" data-name="Слой 95"/><path class="cls-2" d="M147.71 357.04l-32.03 71.37 67.8-35.6" id="Слой_94" data-name="Слой 94"/><path class="cls-2" d="M465.22 339.06l-35.66 35.89 35.1 35.32 35.65-35.89-35.09-35.32z" id="Слой_96" data-name="Слой 96"/></g></g></svg>