<svg xmlns="http://www.w3.org/2000/svg" viewBox="0 0 631.34 641.02"><defs><style>.cls-1,.cls-2{fill:none;stroke:#937d4a;stroke-linecap:round;stroke-linejoin:round}.cls-1{stroke-width:4px}.cls-2{stroke-width:6px}</style></defs><title>s-3</title><g id="Слой_2" data-name="Слой 2"><g id="_3" data-name="3"><path class="cls-1" d="M315.67 61.22v134.35m0-158.13V2M270.2 195.57L226.99 76.86m-20.25-55.65l12.11 33.3M149 121.88l61.84 73.69m-99.9-119.05l22.77 27.14m-42.59 87.21l39.9 23.03m-91.19-52.64l30.69 17.71m-10.2 96.52l69.35 12.22M36.9 271.36L2 265.2m127.67 88.11l-69.35 12.23M2 375.82l34.9-6.15m33.62 92.38l-30.69 17.72m155.24-15.53L149 519.14m-15.29 18.22l-22.77 27.14m152.42-100.26l-36.37 99.93m-8.14 22.35l-12.11 33.29m108.93-40.01V464.24m0 139.35v35.43m88.69-74.85l-36.38-99.93m56.63 155.57l-12.12-33.29m69.85-67.38l-46.07-54.9m84.14 100.26l-22.78-27.14m93.88-57.59l-30.69-17.72m10.2-96.51l-67.35-11.88m125.67 22.16l-34.89-6.15m-23.43-94.18l-67.35 11.87m90.78-16l34.89-6.16m-89.11-74.33L502 212.94m58.82-33.97l30.69-17.71m-109.17-39.38l-61.83 73.69m77.12-91.91l22.78-27.14m-116.05.34l-43.21 118.71m51.34-141.06l12.12-33.3m-305.79 299.3h10.85m-23.2 0H34.21m16.97 96.27l67.91-24.72m25.29 72.18l-44.32 37.19m117.19-10.44l15.44-26.75m-21.62 37.44l-36.13 62.59m106.55-49.9l8.84-50.13m-10.99 62.29L266.8 597.7m83.05-83.33l-8.83-50.13m23.53 133.46L352 526.53m46.65-62.29l15.45 26.75m6.17 10.69l36.13 62.59m74.89-62.84l-44.33-37.19m25.3-72.18l67.9 24.72m-67.64-96.27h-8.85m21.2 0h72.27m-16.98-96.26l-67.9 24.71m-36.33-62.92l55.36-46.45M414.1 150.03l-26.29 45.54m32.46-56.23l36.13-62.58m-106.55 49.89l-12.15 68.92m14.3-81.08l12.55-71.17m-83.06 83.33l12.15 68.92M266.8 43.32l12.54 71.17m-62.09 35.54l26.29 45.54m-32.47-56.23l-36.13-62.58m-19.52 109.28l-55.36-46.45m19.03 109.37l-67.91-24.71" id="Слой_82" data-name="Слой 82"/><g id="Слой_84" data-name="Слой 84"><path class="cls-2" d="M156.34 205.57H477a16.67 16.67 0 0 1 16.67 16.67v208.67h-354V222.24a16.67 16.67 0 0 1 16.67-16.67zm356.32 248.67H120.84a11.74 11.74 0 0 1-5.63-1.44l-12.59-6.89a11.74 11.74 0 0 1-6.11-10.3v-4.7h439.33v4.92A11.74 11.74 0 0 1 530 446l-11.43 6.67a11.74 11.74 0 0 1-5.91 1.57z"/><path class="cls-2" d="M155.01 228.24h323.33v184.67H155.01z"/></g><path class="cls-2" d="M247.45 316.41c4.58 3.83 9.53 6 15.59 4.27 9.74-2.71 17-12.76 23.57-19.85 9.15-9.92 23-17.92 36.8-13.66m-75.97 29.25c-1.86 10.52 7.44 20.94 18.44 18-.72.19-4 8-5.06 9.18A39.24 39.24 0 0 1 254 350c-5.8 4-14.24 4.15-19.76-.48m-.57.03a20.59 20.59 0 0 0 4.23 10.65c2.49 3 6.41 4.9 10.24 4.35a11.57 11.57 0 0 1-5.44 4.81c-2.06.88-4.35 1.13-6.41 2-4.41 1.9-7.22 6.6-7.7 11.38s1.11 9.58 3.55 13.71c-.38-2.22 1.1-4.43 3-5.61a17.16 17.16 0 0 1 6.45-1.89l8.52-1.32m73.3-98.72l28.18-44.75m0 0l-10.25 49.5m-.23.98a12.56 12.56 0 0 0 15.73 1.67 12.22 12.22 0 0 1-5.42 8.71m-28.74-10.84c-2.3 7.66-11.57 10.72-16.29 17.18-5.24 7.19-4 17.13-6.75 25.58a32.38 32.38 0 0 1-11.84 15.71 49.67 49.67 0 0 1-18.19 8m8.3-1.52a53.45 53.45 0 0 1-3.62 14.51A25.31 25.31 0 0 1 265 385.1m52.22-53.63c-.37 1.93-.73 4 0 5.81a9.67 9.67 0 0 0 2.8 3.46 68 68 0 0 0 9.83 7.22c2.82 1.7 5.93 3.24 9.23 3.17s6.12-1.62 8.93-3.14m-5.87-42.8a12.34 12.34 0 0 1 13.1 7 31.51 31.51 0 0 0 1.84 4.39 13.62 13.62 0 0 0 2.76 2.89l20.81 17.91M348.16 348l14.2 5.32c2.66 1 4.42 3.09 6.88 4.07a7.52 7.52 0 0 0 1.87.41 52.65 52.65 0 0 0 7.42.41 2 2 0 0 0 .85-.14 2 2 0 0 0 .76-.82 16.08 16.08 0 0 0 1.86-4.55m-.51-14.64a6.08 6.08 0 0 1 3.88 6 9.32 9.32 0 0 1-.72 2.73 21.81 21.81 0 0 1-2.42 4.44m-59.42-6.03a97 97 0 0 0-.29 34.22m.34.97a33.58 33.58 0 0 1 4.92 21.25M342.53 317l5.58 4.4m.23.01h2.25M329 281a15.3 15.3 0 0 0 14.12.48m-6.32-12.96a11.8 11.8 0 0 0 8.53-.14" id="Слой_85" data-name="Слой 85"/></g></g></svg>