<svg xmlns="http://www.w3.org/2000/svg" viewBox="0 0 631.34 641.02"><defs><style>.cls-1,.cls-2{fill:none;stroke:#937d4a;stroke-linecap:round;stroke-linejoin:round}.cls-1{stroke-width:4px}.cls-2{stroke-width:6px}</style></defs><title>s-4</title><g id="Слой_2" data-name="Слой 2"><g id="_2" data-name="2"><path class="cls-1" d="M315.67 61.22v72.53m0-96.31V2m-88.68 74.86l20.71 56.89M206.74 21.21l12.11 33.3M149 121.88l53.79 64.11M110.94 76.52l22.77 27.14m69.08 151.68L91.12 190.87m-20.6-11.9l-30.69-17.71m20.49 114.23l142.47 25.12M36.9 271.36L2 265.2m200.79 75.21L60.32 365.54M2 375.82l34.9-6.15m165.89 16.01L91.12 450.16m-51.29 29.61l30.69-17.72m132.27-7.02L149 519.14m-15.29 18.22l-22.77 27.14m136.76-57.23l-20.71 56.9m-8.14 22.35l-12.11 33.29m108.93-40.01v-72.53m0 96.32v35.43m88.69-74.85l-20.71-56.9m40.96 112.54l-12.12-33.29m16.06-131.49l53.79 64.11m38.07 45.36l-22.78-27.14m42.6-87.2l-111.68-64.48m162.96 94.09l-30.69-17.72M428.55 340.41l142.47 25.13m23.43 4.13l34.89 6.15m-58.32-100.33l-142.47 25.12m200.79-35.41l-34.89 6.16m-54.22-80.49l-111.68 64.47m132.27-76.37l30.69-17.71m-109.17-39.38l-53.79 64.11m69.08-82.33l22.78-27.14m-116.05.34l-20.71 56.89m28.84-79.24l12.12-33.3" id="Слой_74" data-name="Слой 74"/><path class="cls-1" d="M315.67 61.22v72.53m0-96.31V2m-88.68 74.86l20.71 56.89M206.74 21.21l12.11 33.3M149 121.88l53.79 64.11M110.94 76.52l22.77 27.14m-42.59 87.21l111.67 64.47M39.83 161.26l30.69 17.71m-10.2 96.52l142.47 25.12M36.9 271.36L2 265.2m58.32 100.34l142.47-25.13M36.9 369.67L2 375.82m200.79 9.86L91.12 450.16m-20.6 11.89l-30.69 17.72m162.96-24.74L149 519.14m-15.29 18.22l-22.77 27.14m136.76-57.23l-20.71 56.9m-8.14 22.35l-12.11 33.29m108.93-40.01v-72.53m0 96.32v35.43m88.69-74.85l-20.71-56.9m40.96 112.54l-12.12-33.29m69.85-67.38l-53.79-64.11m91.86 109.47l-22.78-27.14m42.6-87.2l-111.68-64.48m162.96 94.09l-30.69-17.72m10.2-96.51l-142.47-25.13m165.9 29.26l34.89 6.15m-58.32-100.33l-142.47 25.12m165.9-29.25l34.89-6.16m-89.11-74.33l-111.68 64.47m132.27-76.37l30.69-17.71m-109.17-39.38l-53.79 64.11m69.08-82.33l22.78-27.14m-116.05.34l-20.71 56.89m28.84-79.24l12.12-33.3m-305.79 299.3h83.97m-168.58 0h72.26m24.22 67.33l72.1-26.24M51.18 416.78l67.91-24.72m45.79 54.98l37.91-31.81m-47.37 39.75l-55.36 46.45m111.01.25l-36.13 62.59m106.55-49.9l1.25-7.1m-3.4 19.26L266.8 597.7m83.05-83.33l-1.25-7.1m15.95 90.43L352 526.53m68.27-24.85l36.13 62.59m10.07-117.23l-37.92-31.81m47.38 39.75l55.36 46.45m-30.64-113.59l-72.1-26.24m83.71 30.46l67.9 24.72m-67.64-96.27h-83.97m96.32 0h72.27m-96.49-67.33l-72.1 26.25m151.61-55.18l-67.9 24.71m-45.79-54.98l-37.92 31.82m47.38-39.76l55.36-46.45m-111.02-.25l36.13-62.58m-106.55 49.89l-1.25 7.1m3.4-19.26l12.55-71.17m-83.06 83.33l1.25 7.1M266.8 43.32l12.54 71.17m-68.27 24.85l-36.13-62.58m-10.06 117.22l37.91 31.82m-47.37-39.76l-55.36-46.45m30.63 113.59l72.1 26.25m-83.7-30.47l-67.91-24.71" id="Слой_79" data-name="Слой 79"/><g id="Слой_75" data-name="Слой 75"><rect class="cls-2" x="212.79" y="143.75" width="205.75" height="353.52" rx="13.93" ry="13.93"/><path class="cls-2" d="M226.99 176.24h177.37v288.67H226.99z"/><rect class="cls-1" x="270.49" y="427.52" width="90.36" height="19.39" rx="9.69" ry="9.69"/><path class="cls-1" d="M237.17 203.57h158"/></g><g id="Слой_77" data-name="Слой 77"><path class="cls-2" d="M251.64 318.47l12.07 36m-14.08-66.56l1.16 28.49m-.42-28.66c11.06 1.81 14.72 13 14.11 23.14m.44-.02A156.43 156.43 0 0 1 278 342m11.56-48.07l3 41m-2.66-42.51q3.94-12.64 6.91-25.56c3.64.07 6.79 2.72 8.74 5.8A20 20 0 0 1 307 291m-.15.9l4.91 39.51M292.74 336q14.06 21.17 29.89 41.1m-31.78-83.75a31.22 31.22 0 0 0 14-1m-10.44 42.8a21.2 21.2 0 0 0 16.36-2.35m-71.33-9a168.58 168.58 0 0 1 20.82 23.67m-21.06-24.78a16.77 16.77 0 0 1 12.66-2.37M279 342.59A228.84 228.84 0 0 1 310.79 362m7.49-65.24c-1 11.82-1.91 23.64-3.66 35.37m.22 1.28A478.57 478.57 0 0 0 341.25 379M319 296l8.12-18.17m.44-.15a20.33 20.33 0 0 1 4.68 21.18m-.16 2.07a239.79 239.79 0 0 0-.77 29.48m.92 1.11l28.95 28.56m-41.84-62.68a43.48 43.48 0 0 0 11 1.84m-12.5 34.2a29 29 0 0 0 13.5-3m-79.53-14.62a53.12 53.12 0 0 0 11.59-5.32m1.37 43.78A37.41 37.41 0 0 0 277 344m-12.07 11.28q33 23.12 68.18 43m39.24-63.53a127.16 127.16 0 0 1 18 .88m-56 62.87a207.67 207.67 0 0 0 54-6"/><circle class="cls-2" cx="352.09" cy="370.66" r="13.75"/></g><g id="Слой_76" data-name="Слой 76"><path class="cls-2" d="M361.83 349.46c9.72-11.54 16.9-25.56 18.61-40.55 3.13-27.31-20.5-64.74-52.28-51.61-2.22.92-2.42.64-4.34 2.09m-15.76-25.78a37.37 37.37 0 0 1 14.17 32.28m-8.72-.15a15.15 15.15 0 0 0 17.87 2.26"/><path class="cls-2" d="M322.36 259.88a36.66 36.66 0 0 0-19.64-6c-19.07 0-36.23 13.05-37.75 33"/></g></g></g></svg>