<svg xmlns="http://www.w3.org/2000/svg" viewBox="0 0 631.34 641.02"><defs><style>.cls-1,.cls-2{fill:none;stroke:#937d4a;stroke-linecap:round;stroke-linejoin:round}.cls-1{stroke-width:4px}.cls-2{stroke-width:6px}</style></defs><title>s-6</title><g id="Слой_2" data-name="Слой 2"><g id="_5" data-name="5"><path class="cls-1" d="M315.67 65.42v-4.2m0-23.78V2m-72.18 120.2l-16.5-45.34m-20.25-55.65l12.11 33.3m-13.79 134.18L149 121.88m-38.06-45.36l22.77 27.14m41.91 135.99l-84.5-48.78m-51.29-29.61l30.69 17.71m75.64 111.65l-85.84-15.13m-23.42-4.13L2 265.2m58.32 100.34l47.38-8.36M2 375.82l34.9-6.15m33.62 92.38l-30.69 17.72m124.86 20.68L149 519.14m-15.29 18.22l-22.77 27.14m139.24-64.05l-23.19 63.72m-8.14 22.35l-12.11 33.29m108.93-119.36v79.35m0 23.79v35.43m65.49-138.57l23.2 63.72m20.25 55.64l-12.12-33.29m54.17-86.07l15.68 18.69m38.07 45.36l-22.78-27.14m93.88-57.59l-30.69-17.72m10.2-96.51l-46.04-8.12m104.36 18.4l-34.89-6.15m-23.43-94.18l-84.73 14.94m108.16-19.07l34.89-6.16m-172.68-26.09l83.57-48.24m20.59-11.9l30.69-17.71m-164.49 26.55l55.32-65.93m15.29-18.22l22.78-27.14m-132.06 44.32l16.01-43.98m8.13-22.35l12.12-33.3m-295.72 299.3h-10.07m-12.35 0H34.21m44.93 86.09l-27.96 10.18m52.69 81.45l-3.81 3.2m111.01.25l-36.13 62.59m109-63.82l-2.45 13.92m-2.15 12.16L266.8 597.7m80.6-97.25l2.45 13.92m14.7 83.33L352 526.53m68.27-24.85l36.13 62.59m71.87-65.37l3.02 2.53m48.87-84.65l-26.46-9.64m-41.18-86.63h-8.86m21.21 0h72.27m-96.49-67.33l-29.64 10.79m109.15-39.72l-67.9 24.71m-45.79-54.98l-24.17 20.28m33.63-28.22l55.36-46.45M414.1 150.03l-4.45 7.7m10.62-18.39l36.13-62.58m-91.85-33.44l-4.91 27.82M272 72.86l-5.2-29.54m-44.48 115.51l-5.07-8.8m-6.18-10.69l-36.13-62.58m-10.06 117.22l25 20.98m-34.46-28.92l-55.36-46.45m30.63 113.59l30.66 11.16m-42.26-15.38l-67.91-24.71" id="Слой_87" data-name="Слой 87"/><g id="Слой_89" data-name="Слой 89"><path class="cls-2" d="M213.92 431h-68.66m0 0l-34.34 59.46M145.26 431l-34.34-59.47m217 59.47h-68.66m0 0l-34.34 59.46M259.26 431l-22.65-39.22M441.92 431h-68.66m0 0l-34.34 59.46M373.26 431l-34.34-59.47m217 59.47h-68.66m0 0l-34.34 59.46M487.26 431l-34.34-59.47M282.03 194.34l34.36-59.45m0 0l68.66.03m-68.66-.03l-34.31-59.48m-57.1 217.64l34.36-59.46m0 0l45.29.03m-45.29-.03l-34.3-59.48m-68.76 197.42l11.66 20.22 23.33.01m-23.33-.01l34.36-59.45m0 0l68.67.03m-68.67-.03l-34.31-59.49m273.26 118.95l11.67-20.23h23.44m-46.1 39.26l10.99-19.03m80.35 98.69L555.92 431l-34.33-59.47h-34.23m.05 118.93h-34.34m23.29-118.93h11m34.24 118.92l-.01.01h-34.18m-57.15-39.26l22.66 39.26h.15m0 0l.01.02 34.33-.02"/><path class="cls-2" d="M521.6 490.45h.15l34.3-59.48-34.36-59.46-34.33.02m34.24 118.92l-34.19.01m-57.09-39.36l22.75 39.36m23.29-118.92l11-.01m-57.04 39.38l11.05-19.15m0 0l11.66-20.21 23.33-.01m-57.09 20.23l-11.68-20.24h-23.26m45.93 79.67l.06-.1m-.06-40.31l.06.12m-114.06-.12L327.92 431l-11.66 20.2m-103.02-59.43l23.37.01 11.7-20.25m-35.07 20.24l-21.97-.01m10.99 19.03l-10.99-19.03m10.99 19.03L213.92 431l-11.66 20.2m-45.98-79.67h-45.36L76.59 431l34.33 59.46h68.67l22.67-39.26m0-40.41l10.98-19.02m35.07-20.24h45.28l22.67 39.26"/><path class="cls-2" d="M316.26 451.2l-22.67 39.26h-68.67l-22.66-39.26m114-40.41l22.66-39.26h45.41"/><path class="cls-2" d="M430.26 451.2l-22.67 39.26h-68.67l-22.66-39.26m114.06-40.29l11.6 20.09-11.6 20.1m-.06-40.31l-10.99-19.02m57.09-20.23v-.01m-35.11 20.23l-21.98.01m22.1-.01h-.12m-45.27-118.92l34.36 59.46m0 0l68.67-.03m-68.67.03l-22.56 39.12m-68.84-197.28l34.36 59.45m0 0l68.67-.03m-68.67.03l-34.31 59.49m45.34-.02l11.65-20.22 23.34-.01m57.04 98.7l22.65-39.26-34.36-59.46-45.33.02m-34.99 20.23l-22.65 39.27 22.65 39.2m0-78.47l-45.34.02-22.67-39.23"/><path class="cls-2" d="M362.39 174.13l45.22-.02 34.36 59.45-22.65 39.27m-103-59.47l-11.69 20.26 11.69 20.23m10.96-59.49v-.01m35.11-20.22h-.12m-45.95 39.23l10.96-19m0-.01l11.66-20.21 23.33-.01m-91.9 0l11.66 20.21 23.33.01m10.96-118.93l34.26.02m-34.26-.02l-34.24-.01-.02.03m45.22 118.92h-10.96m46.07-20.23l22.66-39.21-34.3-59.48h-.17m-45.22 118.91l10.96.01m-45.95-20.23l-22.65-39.27 34.34-59.42m-33.74 217.62l-23.34-.01-11.65-20.22m56.92-98.7h.12m35 20.23l-.01-.01m-35.11-20.22l-45.21-.02-34.36 59.45 22.65 39.27m92.04-78.47l10.95 19m-68 79.7l45.33.02 22.67-39.23m-68 39.21l22.65 39.27-22.66 39.2"/><path class="cls-2" d="M213.33 272.83l-45.34-.02-34.36 59.46 22.65 39.26m113.97-197.4l-22.66-39.21 34.31-59.48h.16m-11.81 98.69l11.7 20.24 23.42-.01m0 0h10.95m34.26-118.92l-.02-.03-34.24.01m-34.26.02l34.26-.02m45.95 98.71l22.65-39.27-34.34-59.42m-23.3 118.91l-10.96.01M281.9 75.44l34.36 59.45m0 0l68.66-.03m-68.66.03l-34.31 59.48"/></g></g></g></svg>