<svg xmlns="http://www.w3.org/2000/svg" viewBox="0 0 1932.99 582.73"><defs><style>.cls-1{fill:#111}.cls-2,.cls-3,.cls-4,.cls-5,.cls-6,.cls-7,.cls-8{fill:none}.cls-2,.cls-8{stroke:#282828}.cls-2,.cls-4,.cls-5,.cls-6,.cls-7,.cls-8{stroke-linecap:round;stroke-linejoin:round}.cls-2{stroke-width:6px}.cls-4,.cls-5,.cls-6{stroke:#6d6d6d}.cls-4,.cls-7,.cls-8{stroke-width:4px}.cls-5{stroke-width:3px}.cls-6{stroke-width:2px}.cls-7{stroke:#e74922}</style></defs><title>top</title><g id="Слой_2" data-name="Слой 2"><g id="_1" data-name="1"><g id="_4" data-name="4"><path class="cls-1" d="M98 229.3l.34-.42-.54-.12z" transform="translate(0 -177.76)"/><path class="cls-1" d="M1927 760.48V294.74l-20.33 18.66-3.33 21.25-7.33 6.08-4.68 27.27-26.67 18-4.66 11-6.67 13-4 21.33-12 7.33-20 24-30-13-16.67-15-27.33 8-20.67-3.33-9.33-14.67L1692 410l-30.33 8-14 13.33 9 16-4 4.67 18 21.33v8l-11.67 4-16.34 12.67 10 24.67 8.67 4.67-4.67 9.33-34.67 26-6.67-3-15.32 7.65-26-4.67-18-10.65-25 15.33-26.33 6-42 28 8 14.67 13 8.67-6.5 10.67-10.5 4.67-4 8.67-25.34 31.32h-16l-8.67-4-25.33 11.33h-18l-6.67 8-18.66 5.32-15.34-22.65-60.66-11.35-7-6.67-3.67-20L1252 618l-8.17-9.33-17.17-7.33-16-18.67-17.33-4-16.67 13.33-25.33-6.67-34.67 16-28.67 12v11.33l8 4.33-4 4.83h-13.33L1058 648.65l-15.33-4.33-23.34 15.68-15.33-10-27.33-8.75-32.67-3.6-4.67-8.65-5.33-2.18-4-21.82-14.67-26.33-18.67-5.33-20.67-3-28 23-7.33-1.34-24 21.33-14.42 4.67-36.24-4.68-14.83 8.33-9.83 9.75L728 629l-24 17.5-18.67 5.67L650 678.65 632 676l-30 2.67-40.67 24.67h-12.67L519.33 716l-6.67-6.33H504l-14.67-13V691L468 665.48l-26-2.17-18.67 3.33-9.33-3.32-3.33-11.17L398 641.23l-4-7.42-15.33-12.17-8.67-13-32 4.67-18.67 4.17-16-4.17L286 619l-6-10.33-13.33-7.33-29.33 6-10.67-14.67-8-4L202 566l-24.67 5.83-26-1.5-42-32.33 4.67-19.35V496l37.33-8.67 19.5-11.33 39.5-8L240 453.32h16.67l10-24L283 414l11.67-17.33h30l29.33-8 30-2.67 10-20h20l15.33-6.33 15.88-17.33a4 4 0 0 1 1.05.93 41.2 41.2 0 0 1 7.56 16.16 2.24 2.24 0 0 0 .56 1.25 2.11 2.11 0 0 0 1.16.4 34.67 34.67 0 0 0 7.42.14 19.39 19.39 0 0 1 4.85-.14 19.1 19.1 0 0 1 3.37 1.05c5.56 2 11.5 2.65 17.38 3.27.54-3.56-1.4-7-3.63-9.84a10.94 10.94 0 0 0-3.93-3.46 12.58 12.58 0 0 0-4-.8l-11.67-1c-.77-.07 2.84-1.67 2.77-1.57 3.43-4.74-1.76-14.93-3.17-20.11q-1.69-6.17-3.37-12.34c-.64-2.36-1.39-10.27-3.17-11.76l-9.61-8 10.09-26.31-14.11-1.9-10.58 25.59-6.94-4.5-7.63-7.4-1.4-1.14-10.15-7a4.85 4.85 0 0 1-2.74-4.66l-1.25-14.78.15-1-.83-9.52a7.76 7.76 0 0 0-3.22-6.85l-7.74-6.79a17.82 17.82 0 0 1-.22-5.82l-.18-1.43a11.64 11.64 0 0 0 8.5 2.91l1.81-5.09.83-.39h2.36a38.49 38.49 0 0 0-.52-6.94l.3-.37c1.88-2.37 1.32-6-.47-8.42s-4.52-4-7.16-5.44c-6.33-3.5-10.48.94-11.61 7.16l.36.29a2.15 2.15 0 0 0-2.12.93c-.68 1.17-.37 2.64 0 4l.61 2.4-1.6 5a19.65 19.65 0 0 1-5.2 6.36l.08.62a38.34 38.34 0 0 0-14.13 10.36l-.33.09A81.51 81.51 0 0 1 362.5 250l.93 3c1.81 5.94.46 12.9 2.53 18.9.71 2.07 2.13 3.25 3.15 5.15 1.64 3.07 1.29 6.48.85 9.8 4.25 1.58 6.74 6.21 7.14 10.73a19.69 19.69 0 0 1 0 2.33l-5.74 1.47-10.08-11.83-14 2.5-4.67-5h-23.28l-9.67-18.92h-20L270 263.48l-32.67 9.17L222.66 262l-17.33 3-15.67-6-12.33 6-13-1.5-1.85-.72a101.75 101.75 0 0 1-8.76-18.2 18.25 18.25 0 0 0 8.19.12 171.47 171.47 0 0 1-10.69-34l-.54.66c-6.68 12.76-13.61 25.84-24.47 35.3l11.1-1.82a53.64 53.64 0 0 1-9.88 15.92L126 262l-12 3.79-2.28-.88a46.77 46.77 0 0 1-10.61-14.73 12.6 12.6 0 0 0 6.37-1 94.67 94.67 0 0 1-9.77-19.34l-17.88 22.08a28.66 28.66 0 0 0 8.25-1.34 110.41 110.41 0 0 1-10.81 14L68 269.32A90.23 90.23 0 0 1 56.45 246a22.77 22.77 0 0 0 7.4 2.7 69.72 69.72 0 0 1-10.16-19.16 16.11 16.11 0 0 0 7.53 1.26 220.91 220.91 0 0 1-21.39-49.56 197.78 197.78 0 0 1-28.23 49.58 27.42 27.42 0 0 0 9.95-1.26 66.39 66.39 0 0 1-13.41 19.16 36.64 36.64 0 0 0 9.77-2.7A84.06 84.06 0 0 1 7 264.24v496.24z" transform="translate(0 -177.76)"/></g><g id="_2" data-name="2"><path class="cls-2" d="M1817.66 349.06l20-9.33 25-14 5-26.67 16.67-38.67-3.34-14-13.33-22.66-2.67-16m-654 196.66l-11.33 18.67m0 0l-12 12m0 0l12 16.67m0 0l-6 7.66m0 0l-42 29m0 0l-11.33-2.33m0 0l-12 8m-890.67-65l-14.67 3.67m102 98.66l-9.33-13-51.33-13.33-7.34-15-4.66-27.08-29.34-30.25m204.3-301l-22.63 4.33-30 10.33h-29.33l-33.67 7.34-1.67-4h-15l-19.83-3.34-18.17-14.66-26.66 8.66"/><path class="cls-2" d="M446.09 163.47l-16.43 17.93-15.34 6.33h-20l-10 20-30 2.67-29.33 8h-30l-11.67 17.33-16.33 15.33-10 24h-16.67l-29.66 14.67-39.5 8-19.5 11.33-37.34 8.67v22.67l-4.66 19.33 42 32.33 26 1.5 24.66-5.83 16.67 22.67 8 4 10.67 14.66 29.33-6 13.33 7.34 6 10.33 17.34-5.67 16 4.17 18.66-4.17 32-4.66 8.67 13 15.33 12.16 4 7.42 12.67 10.92 3.33 11.16 9.34 3.34 18.66-3.34 26 2.17 21.34 25.5v5.67l14.66 13h8.67l6.67 6.33 29.33-12.67h12.67l40.66-24.66 30-2.67 18 2.67 35.34-26.5 18.66-5.67 24-17.5 13.34 2.42 9.83-9.75 14.83-8.34 36.25 4.67 14.42-4.67 24-21.33 7.33 1.33 28-23 20.67 3 18.67 5.34 14.66 26.33 4 21.83 5.34 2.17 4.66 8.67 32.67 3.58 27.33 8.75 15.34 10 23.33-15.67 15.33 4.34 20.67-14.84h13.33l4-4.83-8-4.33v-11.34l28.67-12 34.67-16 25.33 6.67 16.67-13.33 17.33 4 16 18.66 17.17 7.34 8.16 9.33 5.34 22 3.66 20 7 6.67 60.67 11.33 15.33 22.67 18.67-5.34 6.67-8h18l25.33-11.33 8.67 4h16l25.33-31.33 4-8.67 10.5-4.67 6.5-10.66-13-8.67-8-14.67 42-28 26.33-6 25-15.33 18 10.67 26 4.66 15.34-7.66 6.66 3 34.67-26 4.67-9.34-8.67-4.66-10-24.67 16.33-12.67 11.67-4v-8l-18-21.33 4-4.67-9-16 14-13.33 30.33-8 21.34 14.67 9.33 14.66 20.67 3.34 27.33-8 16.67 15 30 13 20-24 12-7.34 4-21.33 6.66-13 4.67-11 26.67-18 4.66-27.25 7.34-6.08 3.33-21.25 20-18.36"/><path class="cls-3" d="M1926.99 110.81h6v11.92h-6z"/><path class="cls-2" d="M3 268.82a84.05 84.05 0 0 0 15.24-23.31 36.64 36.64 0 0 1-9.77 2.7 66.39 66.39 0 0 0 13.41-19.16 27.42 27.42 0 0 1-9.95 1.26 197.78 197.78 0 0 0 28.23-49.56 220.91 220.91 0 0 0 21.39 49.56 16.11 16.11 0 0 1-7.55-1.25 69.72 69.72 0 0 0 10.16 19.16 22.77 22.77 0 0 1-7.4-2.7 90.23 90.23 0 0 0 11.54 23.31l9.28-4.72a110.41 110.41 0 0 0 10.81-14 28.66 28.66 0 0 1-8.25 1.34l18.22-22.54-.54-.12a94.67 94.67 0 0 0 10 19.88 12.61 12.61 0 0 1-6.37 1 46.78 46.78 0 0 0 10.61 14.73l2.28.88 12-3.79 1.43-1.24a53.64 53.64 0 0 0 9.88-15.92l-11.1 1.82c10.86-9.46 17.79-22.54 24.47-35.3l.54-.66a171.47 171.47 0 0 0 10.69 34 18.25 18.25 0 0 1-8.19-.12 101.75 101.75 0 0 0 8.76 18.2l1.85.72 13 1.5 12.33-6 15.67 6 17.33-3 14.67 10.67 32.66-9.16 19.67 4.57h20l9.67 18.92H343l4.67 5 14-2.5 10.08 11.83L379 299" transform="translate(0 -177.76)"/><path class="cls-4" d="M375.38 290c3.62 19.54 37.64 15.72 51.91 17.34" transform="translate(0 -177.76)"/><path class="cls-5" d="M428.15 307.39l23.93 42.54" transform="translate(0 -177.76)"/><path class="cls-4" d="M443.32 300.54l19.63 45M458.69 304c3.87 14.49 7.68 28.06 11.54 42.55m-106.47-94.1A152.58 152.58 0 0 0 366 269.8a9.76 9.76 0 0 0 1.19 3.59 8.79 8.79 0 0 0 3.58 2.8c4.95 2.49 10.42 3.71 15.83 4.9l26.24 5.8M362.48 251a20.78 20.78 0 0 0 14 .86M364.06 236a81.51 81.51 0 0 1-1.22 13.47m1.55-13.58a38.34 38.34 0 0 1 14.13-10.36m.48-.06a20.58 20.58 0 0 0 3.24 6.38 7.52 7.52 0 0 0 6.26 2.93c2.39-.25 4.58-2.46 4.27-4.84" transform="translate(0 -177.76)"/><path class="cls-5" d="M376.49 242v9m-1.98 2l.51 10.85a4.83 4.83 0 0 0 3.67 5.21 268.11 268.11 0 0 0 34.76 13.5" transform="translate(0 -177.76)"/><path class="cls-4" d="M413 282.51a16.25 16.25 0 0 1 6.49-1m.46.02l7.62 7.37M398.44 246l2.91 31.51" transform="translate(0 -177.76)"/><path class="cls-5" d="M370.6 278.47l.7 8.41a2.36 2.36 0 0 0 .37 1.3 2.32 2.32 0 0 0 1.41.66 54.5 54.5 0 0 0 29.49-2.13" transform="translate(0 -177.76)"/><path class="cls-4" d="M392.45 229.54l8.06 7.07a7.76 7.76 0 0 1 3.22 6.85l.83 9.52m-4.56.94a7.61 7.61 0 0 0 4.07-1.34m.34 1.42l1.25 14.78a4.85 4.85 0 0 0 2.74 4.66l10.15 7m-4.55 8.23l20.56 4.74" transform="translate(0 -177.76)"/><path class="cls-4" d="M434.51 115.65l10.55-25.63m0 0l14.11 1.89m0 0l-10.09 26.32"/><path class="cls-4" d="M433.52 292.92c4.36 1.72 9.33 2 13.85 3.17s9.61 3.24 11.32 7.91" transform="translate(0 -177.76)"/><path class="cls-5" d="M431 292.73c4.4 1.2 10.57 3.43 12.49 8" transform="translate(0 -177.76)"/><path class="cls-4" d="M452.94 350.34a51 51 0 0 0 10.15-5.22m-8.09 9.71a8.64 8.64 0 0 0 8.1-5.22c.28-.68.57-1.5 1.27-1.7s1.54.48 2.17 1.06c5.29 4.83 16.39-.2 19.35 7.06M454 354.48a8.61 8.61 0 0 1 1 5.5m0 .02a81.22 81.22 0 0 0 26.1-1.35 9 9 0 0 0 4.62-2" transform="translate(0 -177.76)"/><path class="cls-4" d="M470 360.46a87.94 87.94 0 0 0 18.83 3.54 5 5 0 0 0-2.41-6.84M392.54 224a17.82 17.82 0 0 0 .26 6m-14.36-5.09a19.65 19.65 0 0 0 5.2-6.36" transform="translate(0 -177.76)"/><path class="cls-5" d="M387.85 207.09c-.37-1.3-2.52-1.11-3.2.06s-.37 2.64 0 4l.61 2.4" transform="translate(0 -177.76)"/><path class="cls-5" d="M386.4 205.93c1.13-6.21 5.28-10.65 11.61-7.16 2.64 1.46 5.38 3 7.16 5.44s2.34 6.05.47 8.42" transform="translate(0 -177.76)"/><path class="cls-6" d="M405.34 213a38.5 38.5 0 0 1 .52 6.94h-2.36" transform="translate(0 -177.76)"/><path class="cls-5" d="M402.67 220.37l-1.81 5.09a11.64 11.64 0 0 1-8.5-2.91" transform="translate(0 -177.76)"/><path class="cls-2" d="M109.66 254.73l52.83-18.25 32-14.25 24.5 13 18.67 2.5 23.83-31 9-5-5-11-13.16-10"/></g><path class="cls-8" d="M355.05 488.03l16.63 21m-46.99-59.36l15.96 20.17m14.4 39.19l18.07 22.83m-63.57-80.31l28.95 36.57m-3.22 16.94l14.79 18.68m-58.83-74.31l29.09 36.74m-37.54-26.41l40.76 51.48m-39.71-29.15l11.19 14.13m-53.17-67.16l34.44 43.49m-65.49 10.5l8.31 10.51m-57.26-72.34l40.63 51.33m-8.31 10.5l13.27 16.76m-54.56-68.92l25.4 32.08m-14.58 2.59l23.79 30.05m-76.38-96.48l37.81 47.76m14.47 39.28l15.91 20.1m-76.57-96.72l44.34 56.01m-32.67-20.27l33.84 42.74m-26.26-12.17l9.85 12.45m-44-55.59l15.76 19.92m55.37-357.08l12.73 16.09m-14.98 2.08l22.96 29m-43.6-34.08l46.73 59.03m-68.15-65.08l47.64 60.17m-31.02-18.17l18.28 23.08m-44.36-56.03l9.46 11.95m-26.08-11.94l26.08 32.95M44.04 76.39l36.94 46.66m234.07-1.84l8.81 11.13m-30.12-17.04l18.11 22.87m-55.28-48.83l32.63 41.22m-19.66-3.83l7.96 10.05m-28.11-35.51l9.46 11.95m-26.09-11.94l17.68 22.32m-46.27-37.45l20.99 26.52m907.3 338.88l19.2-24.25m29.83-16.68l-35.5 44.84m-24.22 30.6l12.56-15.86m47.03-16.71l-9.34 11.8m3.29-25.86l-23.65 29.87m550.89-100.03l-75.84 95.8m101.64-127.25l-9.58 12.09m-54.82 89.11l-11.45 14.47m58.43-73.81l-42.02 53.08m90.08-113.8l-24.5 30.95m-18.87 44.85l-23.96 30.26m58.56-75.11l-18.94 23.92m88.56-68.72l-14.22 17.96m67.85-85.71l-39.72 50.17m-6.38 29.07l-22.85 28.86m56-70.73l-17.68 22.32m1.15 19.55l-10.24 12.94" id="_1-2" data-name="1"/></g></g></svg>